# xmcd
#
# Track frame offsets:
#	150
#	17847
#	32512
#	49568
#	64493
#	81203
#	97493
#	112429
#	131796
#	149861
#	165559
#	182442
#	201589
#	219583
#	238046
#	251435
#	268630
#
# Disc length: 3834 seconds
#
# Revision: 1
# Processed by: cddbd v1.5.2PL0 Copyright (c) Steve Scherf et al.
# Submitted via: dBpowerAMP V4.0
#
DISCID=0e0ef811
DTITLE=Various Artist - What I Love About Sunday
DYEAR=2007
DGENRE=Country
TTITLE0=Tim McGraw - Grown Men Don't Cry
TTITLE1=Wynonna - Come Some Rainy Day
TTITLE2=Randy Travis - Angels
TTITLE3=Steve Holly - Go Home
TTITLE4=Billy Dean - Let Them Be Little
TTITLE5=Tammy Cochran - Angels In Waiting
TTITLE6=Craig Morgan - That's What I Love About Sunday
TTITLE7=Suzy Bogguss - Letting Go
TTITLE8=Clay Davidson - Unconditional
TTITLE9=Holly Dunn - Daddy's Hands
TTITLE10=Sawyer Brown - The Walk
TTITLE11=The Judds - Grandpa (Tell Me 'Bout The Good Old Days)
TTITLE12=Jeff Carson - Butterfly Kisses
TTITLE13=Kellie Coffey - Dance With My Father
TTITLE14=Tracy Lawrence - Lessons Learned
TTITLE15=Billy Ray Cyrus - Face Of God
TTITLE16=Mindy Smith - Come To Jesus
EXTD=Corrected tracknames.
EXTT0=
EXTT1=
EXTT2=
EXTT3=
EXTT4=
EXTT5=
EXTT6=
EXTT7=
EXTT8=
EXTT9=
EXTT10=
EXTT11=
EXTT12=
EXTT13=
EXTT14=
EXTT15=
EXTT16=
PLAYORDER=
